<svg width="307" height="288" viewBox="0 0 307 288" fill="none" xmlns="http://www.w3.org/2000/svg">
<path d="M180.929 198.225V271.125H196.669" stroke="#44BCED" stroke-width="20" stroke-miterlimit="10" stroke-linecap="round" stroke-linejoin="round"/>
<path d="M127.869 198.225V271.125H143.609" stroke="#44BCED" stroke-width="20" stroke-miterlimit="10" stroke-linecap="round" stroke-linejoin="round"/>
<path d="M291.349 36.2939C313.859 81.2639 286.259 118.264 234.989 117.644" stroke="#44BCED" stroke-width="15" stroke-miterlimit="10" stroke-linecap="round" stroke-linejoin="round"/>
<path d="M42.1387 232.774C-27.5214 187.124 23.7187 122.444 69.3587 138.944" stroke="#44BCED" stroke-width="15" stroke-miterlimit="10" stroke-linecap="round" stroke-linejoin="round"/>
<path d="M65.7786 186.554V98.9943C65.7786 84.8643 77.2387 73.4043 91.3687 73.4043H218.699C232.829 73.4043 244.289 84.8643 244.289 98.9943V186.554C244.289 200.684 232.829 212.144 218.699 212.144H91.3687C77.2387 212.144 65.7786 200.684 65.7786 186.554Z" fill="url(#paint0_linear_447_441)"/>
<g opacity="0.8784">
<path d="M207.659 198.954C207.659 198.954 216.299 199.024 216.299 190.914C216.299 186.474 212.699 182.874 208.259 182.874C208.059 182.874 207.859 182.884 207.669 182.894H147.349V182.874C142.909 182.884 139.319 186.484 139.319 190.914C139.319 195.354 142.909 198.954 147.349 198.954H207.659Z" fill="#CCCCCC"/>
</g>
<path d="M102.199 136.894C104.496 136.894 106.359 135.032 106.359 132.734C106.359 130.437 104.496 128.574 102.199 128.574C99.9011 128.574 98.0386 130.437 98.0386 132.734C98.0386 135.032 99.9011 136.894 102.199 136.894Z" fill="#29ABE2"/>
<path d="M102.199 120.074C104.496 120.074 106.359 118.211 106.359 115.914C106.359 113.616 104.496 111.754 102.199 111.754C99.9011 111.754 98.0386 113.616 98.0386 115.914C98.0386 118.211 99.9011 120.074 102.199 120.074Z" fill="#29ABE2"/>
<path d="M88.1886 120.074C90.4861 120.074 92.3486 118.211 92.3486 115.914C92.3486 113.616 90.4861 111.754 88.1886 111.754C85.8911 111.754 84.0286 113.616 84.0286 115.914C84.0286 118.211 85.8911 120.074 88.1886 120.074Z" fill="#29ABE2"/>
<path d="M88.1886 136.343C90.4861 136.343 92.3486 134.481 92.3486 132.183C92.3486 129.886 90.4861 128.023 88.1886 128.023C85.8911 128.023 84.0286 129.886 84.0286 132.183C84.0286 134.481 85.8911 136.343 88.1886 136.343Z" fill="#29ABE2"/>
<path d="M102.199 170.965C104.496 170.965 106.359 169.102 106.359 166.805C106.359 164.507 104.496 162.645 102.199 162.645C99.9011 162.645 98.0386 164.507 98.0386 166.805C98.0386 169.102 99.9011 170.965 102.199 170.965Z" fill="#29ABE2"/>
<path d="M102.199 154.144C104.496 154.144 106.359 152.282 106.359 149.984C106.359 147.687 104.496 145.824 102.199 145.824C99.9011 145.824 98.0386 147.687 98.0386 149.984C98.0386 152.282 99.9011 154.144 102.199 154.144Z" fill="#29ABE2"/>
<path d="M88.1886 154.144C90.4861 154.144 92.3486 152.282 92.3486 149.984C92.3486 147.687 90.4861 145.824 88.1886 145.824C85.8911 145.824 84.0286 147.687 84.0286 149.984C84.0286 152.282 85.8911 154.144 88.1886 154.144Z" fill="#29ABE2"/>
<path d="M88.1886 170.414C90.4861 170.414 92.3486 168.551 92.3486 166.254C92.3486 163.956 90.4861 162.094 88.1886 162.094C85.8911 162.094 84.0286 163.956 84.0286 166.254C84.0286 168.551 85.8911 170.414 88.1886 170.414Z" fill="#29ABE2"/>
<path d="M124.429 165.674V97.4541C124.429 92.7341 128.249 88.9141 132.969 88.9141H222.629C227.349 88.9141 231.169 92.7341 231.169 97.4541V165.674C231.169 170.394 227.349 174.214 222.629 174.214H132.969C128.259 174.214 124.429 170.394 124.429 165.674Z" fill="white"/>
<path d="M207.659 198.934C207.859 198.944 208.049 198.954 208.249 198.954C212.689 198.954 216.289 195.354 216.289 190.914C216.289 186.474 212.689 182.874 208.249 182.874C208.049 182.874 207.849 182.884 207.659 182.894L147.339 182.874C142.899 182.884 139.309 186.484 139.309 190.914C139.309 195.354 142.899 198.954 147.339 198.954L207.659 198.934Z" stroke="white" stroke-width="5.6358" stroke-miterlimit="10"/>
<path d="M205.639 198.604C209.886 198.604 213.329 195.161 213.329 190.914C213.329 186.667 209.886 183.224 205.639 183.224C201.392 183.224 197.949 186.667 197.949 190.914C197.949 195.161 201.392 198.604 205.639 198.604Z" fill="#7CE6E6"/>
<path d="M163.569 120.064V115.944C163.569 114.794 164.509 113.854 165.659 113.854H169.779C170.929 113.854 171.869 114.794 171.869 115.944V120.064C171.869 121.214 170.929 122.154 169.779 122.154H165.659C164.499 122.154 163.569 121.214 163.569 120.064Z" fill="#00004C"/>
<path d="M183.549 120.064V115.944C183.549 114.794 184.489 113.854 185.639 113.854H189.759C190.909 113.854 191.849 114.794 191.849 115.944V120.064C191.849 121.214 190.909 122.154 189.759 122.154H185.639C184.479 122.154 183.549 121.214 183.549 120.064Z" fill="#00004C"/>
<path d="M183.549 130.184V126.064C183.549 124.914 184.489 123.974 185.639 123.974H189.759C190.909 123.974 191.849 124.914 191.849 126.064V130.184C191.849 131.334 190.909 132.274 189.759 132.274H185.639C184.479 132.274 183.549 131.334 183.549 130.184Z" fill="#00004C"/>
<path d="M173.479 137.844V133.724C173.479 132.574 174.419 131.634 175.569 131.634H179.689C180.839 131.634 181.779 132.574 181.779 133.724V137.844C181.779 138.994 180.839 139.934 179.689 139.934H175.569C174.409 139.934 173.479 139.004 173.479 137.844Z" fill="#00004C"/>
<path d="M173.479 111.584V107.464C173.479 106.314 174.419 105.374 175.569 105.374H179.689C180.839 105.374 181.779 106.314 181.779 107.464V111.584C181.779 112.734 180.839 113.674 179.689 113.674H175.569C174.409 113.674 173.479 112.744 173.479 111.584Z" fill="#00004C"/>
<path d="M173.479 156.014V151.894C173.479 150.744 174.419 149.804 175.569 149.804H179.689C180.839 149.804 181.779 150.744 181.779 151.894V156.014C181.779 157.164 180.839 158.104 179.689 158.104H175.569C174.409 158.104 173.479 157.174 173.479 156.014Z" fill="#00004C"/>
<path d="M151.916 19.8306L151.916 33.6006L165.936 33.6006L165.936 19.8306L151.916 19.8306Z" fill="#7CE6E6"/>
<path d="M67.9038 38.2446L67.9038 52.0146L81.9238 52.0146L81.9238 38.2446L67.9038 38.2446Z" fill="#44BCED"/>
<path d="M124.614 -0.000488281L124.614 13.7695L138.634 13.7695L138.634 -0.000488557L124.614 -0.000488281Z" fill="#44BCED"/>
<path d="M229.084 38.2446L229.084 52.0146L243.104 52.0146L243.104 38.2446L229.084 38.2446Z" fill="#7CE6E6"/>
<path d="M205.53 19.8335L205.53 33.6035L219.55 33.6035L219.55 19.8335L205.53 19.8335Z" fill="#44BCED"/>
<path opacity="0.502" d="M32.7687 280.124H266.169" stroke="#44BCED" stroke-width="14.512" stroke-miterlimit="10" stroke-linecap="round" stroke-linejoin="round"/>
<defs>
<linearGradient id="paint0_linear_447_441" x1="65.7772" y1="142.773" x2="244.284" y2="142.773" gradientUnits="userSpaceOnUse">
<stop stop-color="#44BCED"/>
<stop offset="0.5294" stop-color="#B0E2F9"/>
<stop offset="0.6051" stop-color="#AAE0F8"/>
<stop offset="0.7059" stop-color="#99DAF6"/>
<stop offset="0.8209" stop-color="#7ED0F3"/>
<stop offset="0.9453" stop-color="#57C3EF"/>
<stop offset="1" stop-color="#44BCED"/>
</linearGradient>
</defs>
</svg>
