<svg width="600" height="327" viewBox="0 0 600 327" fill="none" xmlns="http://www.w3.org/2000/svg">
<path d="M571.523 214.036L578.283 217.936L584.843 221.716L598.333 214.026L598.233 198.496L592.143 194.996L584.903 190.816L571.413 198.506L571.523 214.036Z" stroke="#44BCED" stroke-width="2.5539" stroke-miterlimit="10"/>
<path d="M177.733 121.906L186.023 126.686L194.073 131.326L210.623 121.886L210.493 102.836L203.033 98.536L194.153 93.416L177.603 102.856L177.733 121.906Z" stroke="#44BCED" stroke-width="2.5539" stroke-miterlimit="10"/>
<path d="M519.683 269.726L527.973 274.506L536.023 279.146L552.573 269.706L552.443 250.656L544.973 246.356L536.093 241.246L519.543 250.676L519.683 269.726Z" stroke="#44BCED" stroke-width="2.5539" stroke-miterlimit="10"/>
<path d="M79.8935 192.664L79.8935 205.754L93.2235 205.754L93.2235 192.664L79.8935 192.664Z" fill="#7CE6E6"/>
<path d="M-2.57579e-07 210.172L0 223.262L13.33 223.262L13.33 210.172L-2.57579e-07 210.172Z" fill="white"/>
<path d="M-2.57579e-07 210.172L0 223.262L13.33 223.262L13.33 210.172L-2.57579e-07 210.172Z" fill="#7CE6E6"/>
<path d="M53.9377 173.803L53.9377 186.893L67.2677 186.893L67.2677 173.803L53.9377 173.803Z" fill="#44BCED"/>
<path d="M153.282 210.175L153.282 223.265L166.612 223.265L166.612 210.175L153.282 210.175Z" fill="#7CE6E6"/>
<path d="M130.88 192.66L130.88 205.75L144.21 205.75L144.21 192.66L130.88 192.66Z" fill="#44BCED"/>
<path opacity="0.502" d="M250.633 319.276H484.033" stroke="#44BCED" stroke-width="14.512" stroke-miterlimit="10" stroke-linecap="round" stroke-linejoin="round"/>
<path opacity="0.502" d="M131.603 319.276H202.483" stroke="#44BCED" stroke-width="14.512" stroke-miterlimit="10" stroke-linecap="round" stroke-linejoin="round"/>
<path d="M344.943 241.166C351.703 320.786 283.783 288.976 283.783 288.976L282.743 306.856" stroke="#44BCED" stroke-width="18.6396" stroke-miterlimit="10" stroke-linecap="round" stroke-linejoin="round"/>
<path d="M391.083 228.336L429.653 309.606L447.123 298.526" stroke="#44BCED" stroke-width="17.829" stroke-miterlimit="10" stroke-linecap="round" stroke-linejoin="round"/>
<path d="M427.673 165.656C472.293 199.956 531.363 176.126 505.503 112.126" stroke="#44BCED" stroke-width="14.1293" stroke-miterlimit="10" stroke-linecap="round" stroke-linejoin="round"/>
<path d="M280.803 232.766L269.393 156.376C267.403 143.026 276.603 130.586 289.953 128.586L402.093 111.836C415.443 109.846 427.883 119.046 429.883 132.396L441.293 208.786C443.283 222.136 434.083 234.576 420.733 236.576L308.593 253.326C295.243 255.326 282.803 246.116 280.803 232.766Z" fill="url(#paint0_linear_447_442)"/>
<g opacity="0.8784">
<path d="M410.203 226.026C410.203 226.026 417.983 224.926 416.893 217.636C416.293 213.646 412.573 210.886 408.583 211.486C408.403 211.516 408.223 211.546 408.053 211.586L353.823 219.686V219.666C349.833 220.266 347.093 223.986 347.683 227.976C348.283 231.966 351.993 234.716 355.983 234.126L410.203 226.026Z" fill="#CCCCCC"/>
</g>
<path d="M306.503 184.426C308.591 184.426 310.283 182.734 310.283 180.646C310.283 178.559 308.591 176.866 306.503 176.866C304.415 176.866 302.723 178.559 302.723 180.646C302.723 182.734 304.415 184.426 306.503 184.426Z" fill="#29ABE2"/>
<path d="M304.243 169.306C306.33 169.306 308.023 167.614 308.023 165.526C308.023 163.438 306.33 161.746 304.243 161.746C302.155 161.746 300.463 163.438 300.463 165.526C300.463 167.614 302.155 169.306 304.243 169.306Z" fill="#29ABE2"/>
<path d="M291.643 171.186C293.731 171.186 295.423 169.494 295.423 167.406C295.423 165.318 293.731 163.626 291.643 163.626C289.555 163.626 287.863 165.318 287.863 167.406C287.863 169.494 289.555 171.186 291.643 171.186Z" fill="#29ABE2"/>
<path d="M293.833 185.816C295.92 185.816 297.613 184.123 297.613 182.036C297.613 179.948 295.92 178.256 293.833 178.256C291.745 178.256 290.053 179.948 290.053 182.036C290.053 184.123 291.745 185.816 293.833 185.816Z" fill="#29ABE2"/>
<path d="M311.073 215.066C313.16 215.066 314.853 213.373 314.853 211.286C314.853 209.198 313.16 207.506 311.073 207.506C308.985 207.506 307.293 209.198 307.293 211.286C307.293 213.373 308.985 215.066 311.073 215.066Z" fill="#29ABE2"/>
<path d="M308.813 199.936C310.9 199.936 312.593 198.244 312.593 196.156C312.593 194.068 310.9 192.376 308.813 192.376C306.725 192.376 305.033 194.068 305.033 196.156C305.033 198.244 306.725 199.936 308.813 199.936Z" fill="#29ABE2"/>
<path d="M296.223 201.826C298.31 201.826 300.003 200.133 300.003 198.046C300.003 195.958 298.31 194.266 296.223 194.266C294.135 194.266 292.443 195.958 292.443 198.046C292.443 200.133 294.135 201.826 296.223 201.826Z" fill="#29ABE2"/>
<path d="M298.403 216.446C300.491 216.446 302.183 214.753 302.183 212.666C302.183 210.578 300.491 208.886 298.403 208.886C296.315 208.886 294.623 210.578 294.623 212.666C294.623 214.753 296.315 216.446 298.403 216.446Z" fill="#29ABE2"/>
<path d="M330.753 206.216L321.913 147.016C321.193 142.186 324.523 137.686 329.353 136.966L407.833 125.246C412.663 124.526 417.163 127.856 417.883 132.686L426.723 191.886C427.443 196.716 424.113 201.216 419.283 201.936L340.803 213.656C335.973 214.376 331.473 211.046 330.753 206.216Z" fill="white"/>
<path d="M410.203 226.006C410.383 225.996 410.563 225.976 410.743 225.946C414.733 225.346 417.493 221.626 416.893 217.636C416.293 213.646 412.573 210.886 408.583 211.486C408.403 211.516 408.223 211.546 408.053 211.586L353.823 219.666C349.833 220.266 347.093 223.986 347.683 227.976C348.283 231.966 351.993 234.716 355.983 234.126L410.203 226.006Z" stroke="white" stroke-width="5.1233" stroke-miterlimit="10"/>
<path d="M407.313 226.046C411.173 226.046 414.303 222.917 414.303 219.056C414.303 215.196 411.173 212.066 407.313 212.066C403.452 212.066 400.323 215.196 400.323 219.056C400.323 222.917 403.452 226.046 407.313 226.046Z" fill="#7CE6E6"/>
<path d="M348.103 176.146L347.353 171.116C347.253 170.446 347.713 169.816 348.383 169.716L353.413 168.966C354.083 168.866 354.713 169.326 354.813 169.996L355.563 175.026C355.663 175.696 355.203 176.326 354.533 176.426L349.503 177.176C348.823 177.276 348.203 176.816 348.103 176.146Z" fill="#00004C"/>
<path d="M365.783 164.296L365.033 159.266C364.933 158.596 365.393 157.966 366.063 157.866L371.093 157.116C371.763 157.016 372.393 157.476 372.493 158.146L373.243 163.176C373.343 163.846 372.883 164.476 372.213 164.576L367.183 165.326C366.503 165.426 365.883 164.966 365.783 164.296Z" fill="#7CE6E6"/>
<path d="M380.683 162.066L379.933 157.036C379.833 156.366 380.293 155.736 380.963 155.636L385.993 154.886C386.663 154.786 387.293 155.246 387.393 155.916L388.143 160.946C388.243 161.616 387.783 162.246 387.113 162.346L382.083 163.096C381.413 163.196 380.783 162.736 380.683 162.066Z" fill="#7CE6E6"/>
<path d="M357.673 182.846L356.923 177.816C356.823 177.146 357.283 176.516 357.953 176.416L399.183 170.256C399.853 170.156 400.483 170.616 400.583 171.286L401.333 176.316C401.433 176.986 400.973 177.616 400.303 177.716L359.073 183.876C358.393 183.976 357.773 183.516 357.673 182.846Z" fill="#00004C"/>
<path d="M400.193 168.366L399.443 163.336C399.343 162.666 399.803 162.036 400.473 161.936L405.503 161.186C406.173 161.086 406.803 161.546 406.903 162.216L407.653 167.246C407.753 167.916 407.293 168.546 406.623 168.646L401.593 169.396C400.913 169.496 400.293 169.036 400.193 168.366Z" fill="#00004C"/>
<path d="M286.573 199.036C244.253 170.116 197.103 200.166 217.433 247.526" stroke="#4BBEEE" stroke-width="14.1293" stroke-miterlimit="10" stroke-linecap="round" stroke-linejoin="round"/>
<path d="M293.353 86.2262L283.553 30.9661C282.583 25.4961 286.233 20.2761 291.703 19.3061L382.713 3.15615C388.183 2.18615 393.403 5.83614 394.373 11.3061L404.173 66.5661C405.143 72.0361 401.493 77.2562 396.023 78.2262L384.553 80.2661L387.483 96.7961L363.753 83.9561L305.013 94.3761C299.543 95.3461 294.323 91.6962 293.353 86.2262Z" stroke="#079FE4" stroke-width="4.4456" stroke-miterlimit="10" stroke-linejoin="round"/>
<path d="M353.083 28.2065C355.853 29.9165 357.573 32.6365 358.233 36.3665C358.893 40.0665 358.203 43.0965 356.173 45.4565C354.143 47.8165 351.163 49.3465 347.243 50.0465L347.793 54.4465L340.833 55.6765L338.843 46.1065L341.393 45.6565C344.673 45.0765 347.123 44.1965 348.743 43.0065C350.363 41.8265 350.973 40.0865 350.563 37.7765C350.273 36.1165 349.553 34.8865 348.413 34.0765C347.273 33.2665 345.883 33.0065 344.213 33.3065C342.473 33.6165 341.213 34.3265 340.413 35.4365C339.623 36.5465 339.373 37.9365 339.663 39.5965L332.193 40.9265C331.743 38.6365 331.873 36.4865 332.573 34.4965C333.273 32.5065 334.523 30.8265 336.323 29.4565C338.123 28.0865 340.363 27.1665 343.043 26.6865C346.963 25.9965 350.313 26.5065 353.083 28.2065ZM342.903 67.8965C341.823 67.1765 341.163 66.1565 340.933 64.8365C340.703 63.5165 340.963 62.3265 341.733 61.2765C342.503 60.2265 343.603 59.5765 345.033 59.3165C346.433 59.0665 347.663 59.3065 348.723 60.0365C349.783 60.7665 350.433 61.7865 350.663 63.1065C350.893 64.4265 350.643 65.6065 349.893 66.6565C349.143 67.7065 348.073 68.3465 346.673 68.5965C345.243 68.8565 343.993 68.6165 342.903 67.8965Z" fill="#079FE4"/>
<path d="M459.603 39.3462C460.973 41.5862 461.213 44.1662 460.333 47.0962C459.453 49.9962 457.853 51.9162 455.533 52.8762C453.213 53.8362 450.513 53.8462 447.433 52.9162L446.223 56.2762L440.773 54.6262L442.833 47.0262L444.823 47.6262C447.393 48.4062 449.473 48.6662 451.073 48.4062C452.663 48.1462 453.743 47.1162 454.283 45.3162C454.673 44.0162 454.613 42.8662 454.093 41.8662C453.573 40.8662 452.663 40.1762 451.363 39.7762C450.003 39.3662 448.833 39.4162 447.853 39.9262C446.873 40.4362 446.193 41.3462 445.793 42.6462L439.943 40.8762C440.463 39.0662 441.333 37.5662 442.563 36.3962C443.793 35.2162 445.303 34.4662 447.093 34.1362C448.883 33.8062 450.833 33.9662 452.933 34.5962C456.013 35.5262 458.233 37.1062 459.603 39.3462ZM437.803 64.1562C437.283 63.2462 437.193 62.2662 437.503 61.2362C437.813 60.2062 438.443 59.4462 439.373 58.9762C440.303 58.5062 441.333 58.4362 442.463 58.7762C443.553 59.1062 444.353 59.7262 444.853 60.6362C445.353 61.5462 445.443 62.5162 445.133 63.5562C444.823 64.5862 444.203 65.3462 443.283 65.8262C442.363 66.3062 441.353 66.3762 440.263 66.0462C439.143 65.6962 438.323 65.0662 437.803 64.1562Z" fill="#079FE4"/>
<path d="M232.363 26.1161C234.523 26.4861 236.283 27.7661 237.633 29.9361C238.973 32.0861 239.293 34.1561 238.623 36.1461C237.943 38.1361 236.463 39.8361 234.183 41.2561L235.623 43.8761L231.573 46.3961L227.933 40.9061L229.413 39.9861C231.323 38.7961 232.633 37.6361 233.353 36.4861C234.073 35.3361 234.013 34.0961 233.183 32.7561C232.583 31.7961 231.823 31.1961 230.913 30.9761C230.003 30.7561 229.063 30.9461 228.093 31.5461C227.083 32.1761 226.473 32.9361 226.253 33.8361C226.033 34.7361 226.223 35.6661 226.823 36.6261L222.483 39.3261C221.633 38.0061 221.173 36.6261 221.113 35.2061C221.053 33.7861 221.413 32.4161 222.193 31.1161C222.973 29.8061 224.143 28.6661 225.703 27.7061C227.973 26.2661 230.203 25.7461 232.363 26.1161ZM235.933 53.5061C235.073 53.3261 234.403 52.8461 233.933 52.0861C233.453 51.3161 233.323 50.5061 233.543 49.6561C233.763 48.8061 234.283 48.1261 235.123 47.6061C235.933 47.1061 236.763 46.9461 237.613 47.1361C238.463 47.3261 239.123 47.8061 239.603 48.5661C240.083 49.3361 240.213 50.1361 240.013 50.9861C239.803 51.8261 239.293 52.5061 238.483 53.0061C237.633 53.5261 236.793 53.6961 235.933 53.5061Z" fill="#079FE4"/>
<defs>
<linearGradient id="paint0_linear_447_442" x1="275.078" y1="194.536" x2="435.567" y2="170.552" gradientUnits="userSpaceOnUse">
<stop stop-color="#44BCED"/>
<stop offset="0.5294" stop-color="#B0E2F9"/>
<stop offset="0.6051" stop-color="#AAE0F8"/>
<stop offset="0.7059" stop-color="#99DAF6"/>
<stop offset="0.8209" stop-color="#7ED0F3"/>
<stop offset="0.9453" stop-color="#57C3EF"/>
<stop offset="1" stop-color="#44BCED"/>
</linearGradient>
</defs>
</svg>
