<svg width="606" height="287" viewBox="0 0 606 287" fill="none" xmlns="http://www.w3.org/2000/svg">
<path d="M577.251 94.47L584.011 98.36L590.571 102.14L604.061 94.45L603.951 78.92L597.871 75.42L590.631 71.25L577.141 78.94L577.251 94.47Z" stroke="#44BCED" stroke-width="2.5539" stroke-miterlimit="10"/>
<path d="M344.981 30.48L353.271 35.26L361.321 39.9L377.871 30.47L377.741 11.42L370.281 7.12L361.401 2L344.851 11.43L344.981 30.48Z" stroke="#44BCED" stroke-width="2.5539" stroke-miterlimit="10"/>
<path d="M492.801 164.97L501.091 169.75L509.141 174.39L525.701 164.95L525.561 145.9L518.101 141.6L509.221 136.48L492.671 145.92L492.801 164.97Z" stroke="#44BCED" stroke-width="2.5539" stroke-miterlimit="10"/>
<path opacity="0.502" d="M246.811 279.72H480.211" stroke="#44BCED" stroke-width="14.512" stroke-miterlimit="10" stroke-linecap="round" stroke-linejoin="round"/>
<path opacity="0.502" d="M130.301 279.72H198.661" stroke="#44BCED" stroke-width="14.512" stroke-miterlimit="10" stroke-linecap="round" stroke-linejoin="round"/>
<path d="M367.271 190.64C413.181 207.51 403.051 267.97 403.051 267.97L423.971 258.03" stroke="#44BCED" stroke-width="17.7825" stroke-miterlimit="10" stroke-linecap="round" stroke-linejoin="round"/>
<path d="M332.101 191.69C361.281 262.11 290.331 252.84 290.331 252.84L294.561 269.39" stroke="#44BCED" stroke-width="17.7825" stroke-miterlimit="10" stroke-linecap="round" stroke-linejoin="round"/>
<path d="M275.321 148.58C194.561 137.83 186.651 215.66 229.651 230" stroke="#44BCED" stroke-width="14.3193" stroke-miterlimit="10" stroke-linecap="round" stroke-linejoin="round"/>
<path d="M405.441 125.52C469.071 144.29 485.631 87.9604 461.951 56.6104" stroke="#44BCED" stroke-width="14.3193" stroke-miterlimit="10" stroke-linecap="round" stroke-linejoin="round"/>
<path d="M263.031 198.041L250.191 112.111C248.521 100.931 256.231 90.5106 267.411 88.8406L389.581 70.5906C400.761 68.9206 411.181 76.6307 412.851 87.8107L425.691 173.741C427.361 184.921 419.651 195.341 408.471 197.011L286.291 215.261C275.111 216.931 264.701 209.221 263.031 198.041Z" fill="url(#paint0_linear_447_443)"/>
<g opacity="0.8784">
<path d="M393.531 186.95C393.531 186.95 401.411 185.84 400.311 178.44C399.711 174.39 395.931 171.6 391.881 172.2C391.701 172.23 391.521 172.26 391.341 172.3L336.381 180.51V180.49C332.341 181.1 329.551 184.87 330.161 188.91C330.761 192.95 334.531 195.74 338.571 195.15L393.531 186.95Z" fill="#CCCCCC"/>
</g>
<path d="M288.431 144.801C290.546 144.801 292.261 143.086 292.261 140.971C292.261 138.855 290.546 137.141 288.431 137.141C286.316 137.141 284.601 138.855 284.601 140.971C284.601 143.086 286.316 144.801 288.431 144.801Z" fill="#29ABE2"/>
<path d="M286.141 129.48C288.256 129.48 289.971 127.766 289.971 125.65C289.971 123.535 288.256 121.82 286.141 121.82C284.026 121.82 282.311 123.535 282.311 125.65C282.311 127.766 284.026 129.48 286.141 129.48Z" fill="#29ABE2"/>
<path d="M273.371 131.381C275.486 131.381 277.201 129.666 277.201 127.551C277.201 125.435 275.486 123.721 273.371 123.721C271.256 123.721 269.541 125.435 269.541 127.551C269.541 129.666 271.256 131.381 273.371 131.381Z" fill="#29ABE2"/>
<path d="M275.591 146.211C277.706 146.211 279.421 144.496 279.421 142.381C279.421 140.266 277.706 138.551 275.591 138.551C273.476 138.551 271.761 140.266 271.761 142.381C271.761 144.496 273.476 146.211 275.591 146.211Z" fill="#29ABE2"/>
<path d="M293.071 175.85C295.186 175.85 296.901 174.136 296.901 172.02C296.901 169.905 295.186 168.19 293.071 168.19C290.955 168.19 289.241 169.905 289.241 172.02C289.241 174.136 290.955 175.85 293.071 175.85Z" fill="#29ABE2"/>
<path d="M290.781 160.52C292.896 160.52 294.611 158.806 294.611 156.69C294.611 154.575 292.896 152.86 290.781 152.86C288.666 152.86 286.951 154.575 286.951 156.69C286.951 158.806 288.666 160.52 290.781 160.52Z" fill="#29ABE2"/>
<path d="M278.011 162.431C280.126 162.431 281.841 160.716 281.841 158.601C281.841 156.485 280.126 154.771 278.011 154.771C275.896 154.771 274.181 156.485 274.181 158.601C274.181 160.716 275.896 162.431 278.011 162.431Z" fill="#29ABE2"/>
<path d="M280.231 177.25C282.346 177.25 284.061 175.535 284.061 173.42C284.061 171.305 282.346 169.59 280.231 169.59C278.115 169.59 276.401 171.305 276.401 173.42C276.401 175.535 278.115 177.25 280.231 177.25Z" fill="#29ABE2"/>
<path d="M313.021 167L304.021 106.77C303.301 101.94 306.631 97.44 311.461 96.72L391.231 84.8C396.061 84.08 400.561 87.41 401.281 92.24L410.281 152.47C411.001 157.3 407.671 161.8 402.841 162.52L323.071 174.44C318.251 175.16 313.751 171.83 313.021 167Z" fill="white"/>
<path d="M393.531 186.93C393.711 186.92 393.891 186.9 394.071 186.87C398.121 186.27 400.911 182.49 400.311 178.44C399.711 174.39 395.931 171.6 391.881 172.2C391.701 172.23 391.521 172.26 391.341 172.3L336.381 180.49C332.341 181.1 329.551 184.87 330.161 188.91C330.761 192.95 334.531 195.74 338.571 195.15L393.531 186.93Z" stroke="white" stroke-width="5.1922" stroke-miterlimit="10"/>
<path d="M390.601 186.98C394.511 186.98 397.681 183.81 397.681 179.9C397.681 175.99 394.511 172.82 390.601 172.82C386.691 172.82 383.521 175.99 383.521 179.9C383.521 183.81 386.691 186.98 390.601 186.98Z" fill="#7CE6E6"/>
<path d="M330.591 136.42L329.821 131.29C329.721 130.62 330.181 129.99 330.851 129.89L335.981 129.12C336.651 129.02 337.281 129.48 337.381 130.15L338.151 135.28C338.251 135.95 337.791 136.58 337.121 136.68L331.991 137.45C331.321 137.56 330.691 137.09 330.591 136.42Z" fill="#00004C"/>
<path d="M348.511 124.41L347.741 119.28C347.641 118.61 348.101 117.98 348.771 117.88L353.901 117.11C354.571 117.01 355.201 117.47 355.301 118.14L356.071 123.27C356.171 123.94 355.711 124.57 355.041 124.67L349.911 125.44C349.241 125.55 348.611 125.08 348.511 124.41Z" fill="#7CE6E6"/>
<path d="M363.621 122.16L362.851 117.03C362.751 116.36 363.211 115.73 363.881 115.63L369.011 114.86C369.681 114.76 370.311 115.22 370.411 115.89L371.181 121.02C371.281 121.69 370.821 122.32 370.151 122.42L365.021 123.19C364.341 123.29 363.721 122.83 363.621 122.16Z" fill="#7CE6E6"/>
<path d="M340.291 143.211L339.521 138.081C339.421 137.411 339.881 136.781 340.551 136.681L382.371 130.431C383.041 130.331 383.671 130.791 383.771 131.461L384.541 136.591C384.641 137.261 384.181 137.891 383.511 137.991L341.691 144.241C341.021 144.351 340.391 143.881 340.291 143.211Z" fill="#00004C"/>
<path d="M383.381 128.54L382.611 123.41C382.511 122.74 382.971 122.11 383.641 122.01L388.771 121.24C389.441 121.14 390.071 121.6 390.171 122.27L390.941 127.4C391.041 128.07 390.581 128.7 389.911 128.8L384.781 129.57C384.111 129.67 383.481 129.21 383.381 128.54Z" fill="#00004C"/>
<path d="M535.381 31.0198L465.661 10.5798C460.091 8.94981 454.331 11.8199 452.821 16.9999L451.391 21.8598L541.301 48.2198L542.731 43.3598C544.251 38.1698 540.961 32.6498 535.381 31.0198Z" fill="#3CB5EA"/>
<path d="M436.071 74.1194C434.551 79.2994 437.841 84.8194 443.421 86.4594L513.141 106.899C518.711 108.529 524.471 105.659 525.981 100.479L541.301 48.2194L451.391 21.8594L436.071 74.1194Z" fill="#7CE6E6"/>
<path d="M463.375 18.2014C463.63 17.3323 463.132 16.4212 462.263 16.1664C461.393 15.9116 460.482 16.4096 460.227 17.2788C459.973 18.1479 460.471 19.0591 461.34 19.3139C462.209 19.5687 463.12 19.0706 463.375 18.2014Z" fill="white"/>
<path d="M469.228 19.9153C469.483 19.0462 468.985 18.135 468.116 17.8802C467.247 17.6254 466.336 18.1235 466.081 18.9926C465.826 19.8618 466.324 20.773 467.193 21.0277C468.062 21.2825 468.974 20.7845 469.228 19.9153Z" fill="white"/>
<path d="M475.072 21.6263C475.327 20.7571 474.829 19.846 473.96 19.5912C473.091 19.3364 472.179 19.8345 471.925 20.7036C471.67 21.5728 472.168 22.4839 473.037 22.7387C473.906 22.9935 474.817 22.4955 475.072 21.6263Z" fill="white"/>
<path d="M490.441 45.8897L467.841 67.4497C465.151 70.0197 466.251 74.5397 469.821 75.5797L499.791 84.3697C503.361 85.4197 506.721 82.1997 505.841 78.5897L498.461 48.2397C497.591 44.6297 493.131 43.3197 490.441 45.8897Z" fill="white"/>
<path d="M492.751 52.9492L489.191 65.0892" stroke="#7CE6E6" stroke-width="5.8174" stroke-miterlimit="10" stroke-linecap="round" stroke-linejoin="round"/>
<path d="M486.851 75.9093C488.464 75.9093 489.771 74.602 489.771 72.9893C489.771 71.3766 488.464 70.0693 486.851 70.0693C485.238 70.0693 483.931 71.3766 483.931 72.9893C483.931 74.602 485.238 75.9093 486.851 75.9093Z" fill="#7CE6E6"/>
<path d="M79.8935 139.462L79.8935 152.552L93.2235 152.552L93.2235 139.462L79.8935 139.462Z" fill="#44BCED"/>
<path d="M-2.57581e-07 156.97L0 170.06L13.33 170.06L13.33 156.97L-2.57581e-07 156.97Z" fill="white"/>
<path d="M-2.57581e-07 156.97L0 170.06L13.33 170.06L13.33 156.97L-2.57581e-07 156.97Z" fill="#44BCED"/>
<path d="M53.9277 120.6L53.9277 133.69L67.2578 133.69L67.2578 120.6L53.9277 120.6Z" fill="#7CE6E6"/>
<path d="M153.282 156.973L153.282 170.062L166.612 170.062L166.612 156.973L153.282 156.973Z" fill="#44BCED"/>
<path d="M130.88 139.458L130.88 152.548L144.21 152.548L144.21 139.458L130.88 139.458Z" fill="#7CE6E6"/>
<defs>
<linearGradient id="paint0_linear_447_443" x1="256.624" y1="155.071" x2="419.271" y2="130.764" gradientUnits="userSpaceOnUse">
<stop stop-color="#44BCED"/>
<stop offset="0.5294" stop-color="#B0E2F9"/>
<stop offset="0.6051" stop-color="#AAE0F8"/>
<stop offset="0.7059" stop-color="#99DAF6"/>
<stop offset="0.8209" stop-color="#7ED0F3"/>
<stop offset="0.9453" stop-color="#57C3EF"/>
<stop offset="1" stop-color="#44BCED"/>
</linearGradient>
</defs>
</svg>
