<svg width="74" height="73" viewBox="0 0 74 73" fill="none" xmlns="http://www.w3.org/2000/svg">
<path d="M0.71875 41.2667V9.10488C0.71875 4.09241 4.79756 0.0302734 9.8306 0.0302734H64.5766C69.6097 0.0302734 73.6885 4.09241 73.6885 9.10488V41.2667C73.6885 46.2791 69.6097 50.3413 64.5766 50.3413H9.8306C4.79756 50.3413 0.71875 46.2791 0.71875 41.2667Z" fill="#CCCCCC"/>
<path d="M5 1.50232L37.2096 24.9528L69.4192 1.50232C68.044 0.579955 66.4349 0.0302734 64.6948 0.0302734H9.72431C7.99362 0.0302734 6.3752 0.570638 5 1.50232Z" fill="white"/>
<path d="M64.8457 26.6986C64.8457 24.4274 62.9186 22.5781 60.5424 22.5781H59.7378C57.3616 22.5781 55.4345 24.4274 55.4345 26.6986V38.9162C55.2755 38.9073 55.1071 38.9073 54.948 38.9073H43.3664C37.9031 38.9073 33.4688 43.1534 33.4688 48.387V71.5028H64.8457V26.6986Z" fill="white"/>
<path d="M64.8317 61.8193H33.4922V72.9996H64.8317V61.8193Z" fill="#7CE6E6"/>
<path d="M13.2109 27.3174H27.2436" stroke="white" stroke-width="2.652" stroke-miterlimit="10" stroke-linecap="round" stroke-linejoin="round"/>
<path d="M13.2109 36.2705H19.9466" stroke="white" stroke-width="2.652" stroke-miterlimit="10" stroke-linecap="round" stroke-linejoin="round"/>
</svg>
