<svg width="25" height="25" viewBox="0 0 25 25" fill="none" xmlns="http://www.w3.org/2000/svg">
<path d="M12.4868 16.0936C13.5862 16.0936 14.52 15.7087 15.2881 14.9391C16.0562 14.1695 16.4403 13.235 16.4403 12.1355C16.4403 11.0361 16.0555 10.1023 15.2858 9.33423C14.5162 8.56611 13.5817 8.18205 12.4822 8.18205C11.3828 8.18205 10.449 8.56686 9.68094 9.33648C8.91283 10.1061 8.52877 11.0406 8.52877 12.1401C8.52877 13.2395 8.91358 14.1733 9.68319 14.9414C10.4528 15.7095 11.3873 16.0936 12.4868 16.0936ZM12.4869 14.7974C11.7488 14.7974 11.1206 14.5391 10.6023 14.0224C10.084 13.5057 9.82489 12.8783 9.82489 12.1402C9.82489 11.4021 10.0832 10.7739 10.5999 10.2556C11.1166 9.73732 11.744 9.47818 12.4821 9.47818C13.2203 9.47818 13.8485 9.73652 14.3667 10.2532C14.885 10.7699 15.1441 11.3973 15.1441 12.1354C15.1441 12.8735 14.8858 13.5017 14.3691 14.02C13.8524 14.5383 13.225 14.7974 12.4869 14.7974ZM12.4859 18.9762C10.235 18.9762 8.18678 18.3541 6.34127 17.1099C4.49577 15.8657 3.13038 14.2083 2.24512 12.1378C3.13038 10.0673 4.49531 8.40994 6.33989 7.1657C8.18449 5.92149 10.2322 5.29938 12.4831 5.29938C14.734 5.29938 16.7823 5.92149 18.6278 7.1657C20.4733 8.40994 21.8386 10.0673 22.7239 12.1378C21.8386 14.2083 20.4737 15.8657 18.6291 17.1099C16.7845 18.3541 14.7368 18.9762 12.4859 18.9762ZM12.4845 17.5772C14.3397 17.5772 16.0486 17.0884 17.6112 16.1108C19.1738 15.1332 20.3646 13.8089 21.1836 12.1378C20.3646 10.4667 19.1738 9.14238 17.6112 8.16478C16.0486 7.18718 14.3397 6.69838 12.4845 6.69838C10.6294 6.69838 8.92048 7.18718 7.35784 8.16478C5.79521 9.14238 4.60442 10.4667 3.78547 12.1378C4.60442 13.8089 5.79521 15.1332 7.35784 16.1108C8.92048 17.0884 10.6294 17.5772 12.4845 17.5772Z" fill="#161616"/>
</svg>
