<svg width="25" height="25" viewBox="0 0 25 25" fill="none" xmlns="http://www.w3.org/2000/svg">
<path d="M16.1489 13.6436L15.0941 12.5888C15.2576 11.7068 15.0193 10.9407 14.3792 10.2907C13.7391 9.64075 12.9681 9.39747 12.0662 9.56092L11.0114 8.50847C11.2371 8.40564 11.4718 8.33099 11.7157 8.28452C11.9597 8.23804 12.2154 8.2148 12.483 8.2148C13.5927 8.2148 14.5297 8.5969 15.2939 9.36112C16.0581 10.1253 16.4402 11.0623 16.4402 12.172C16.4402 12.4396 16.417 12.6999 16.3705 12.9527C16.3241 13.2056 16.2502 13.4359 16.1489 13.6436ZM19.2364 16.6821L18.2258 15.7223C18.8425 15.2513 19.4023 14.7246 19.9053 14.1422C20.4083 13.5598 20.8344 12.9026 21.1835 12.1705C20.3637 10.5058 19.1826 9.18304 17.6403 8.20227C16.098 7.2215 14.3794 6.73112 12.4845 6.73112C12.0146 6.73112 11.5363 6.76782 11.0494 6.84122C10.5625 6.91462 10.0983 7.01799 9.65662 7.15132L8.55952 6.05422C9.17298 5.81127 9.81176 5.63019 10.4758 5.51097C11.1399 5.39174 11.8095 5.33212 12.4845 5.33212C14.7739 5.33212 16.8402 5.96481 18.6833 7.2302C20.5264 8.49556 21.8732 10.1426 22.7239 12.1713C22.3534 13.0375 21.8795 13.8531 21.3022 14.6181C20.725 15.3832 20.0364 16.0712 19.2364 16.6821ZM20.1451 22.2772L16.1922 18.3503C15.698 18.5433 15.1374 18.7013 14.5106 18.8243C13.8837 18.9474 13.2084 19.009 12.4845 19.009C10.1899 19.009 8.12477 18.3763 6.28907 17.1109C4.45335 15.8455 3.10537 14.1994 2.24512 12.1726C2.61433 11.3014 3.09126 10.488 3.67589 9.73257C4.26051 8.97712 4.89737 8.3228 5.58647 7.7696L2.85762 4.9696L3.83067 3.99652L21.1383 21.3042L20.1451 22.2772ZM6.57972 8.74265C6.0515 9.1497 5.53098 9.65515 5.01817 10.259C4.50533 10.8628 4.09443 11.5 3.78544 12.1705C4.60533 13.8353 5.78642 15.1581 7.32872 16.1388C8.87103 17.1196 10.5896 17.61 12.4845 17.61C12.9614 17.61 13.4369 17.5707 13.911 17.4922C14.385 17.4137 14.7724 17.3282 15.073 17.2359L13.7649 15.8993C13.5959 15.9686 13.3925 16.0237 13.1547 16.0647C12.9169 16.1058 12.6931 16.1263 12.4833 16.1263C11.3764 16.1263 10.4406 15.7443 9.67587 14.9804C8.91112 14.2164 8.52874 13.2798 8.52874 12.1705C8.52874 11.9688 8.54926 11.7536 8.59029 11.5249C8.63133 11.2961 8.68646 11.0905 8.75569 10.908L6.57972 8.74265Z" fill="#161616"/>
</svg>
