<svg width="39" height="39" viewBox="0 0 39 39" fill="none" xmlns="http://www.w3.org/2000/svg">
<path d="M19.008 38.016C29.5058 38.016 38.016 29.5058 38.016 19.008C38.016 8.51017 29.5058 0 19.008 0C8.51017 0 0 8.51017 0 19.008C0 29.5058 8.51017 38.016 19.008 38.016Z" fill="#BBBBBB"/>
<path d="M21.1693 38.016V25.2552H25.5512L26.2026 20.2515H21.1693V17.0539C21.1693 15.6031 21.5838 14.6557 23.6564 14.6557H26.321V10.2442C25.0479 10.1258 23.7748 10.0665 22.4721 10.0665C18.6231 10.0073 16.0769 12.3167 16.0769 16.5802V20.2515H11.6949V25.2552H16.0769V38.016H21.1693Z" fill="white"/>
</svg>
