<svg width="39" height="39" viewBox="0 0 39 39" fill="none" xmlns="http://www.w3.org/2000/svg">
<path d="M19.024 38.016C29.5218 38.016 38.032 29.5058 38.032 19.008C38.032 8.51017 29.5218 0 19.024 0C8.52617 0 0.0159912 8.51017 0.0159912 19.008C0.0159912 29.5058 8.52617 38.016 19.024 38.016Z" fill="#BBBBBB"/>
<path d="M10.5562 16.166H14.1683V27.6241H10.5562V16.166Z" fill="white"/>
<path fill-rule="evenodd" clip-rule="evenodd" d="M14.4644 12.4644C14.4644 13.6487 13.517 14.5962 12.3623 14.5962C11.178 14.5962 10.2306 13.6487 10.2306 12.494C10.2306 11.3097 11.178 10.3623 12.3327 10.3623H12.3623C13.517 10.3623 14.4644 11.2801 14.4644 12.4644ZM23.9388 15.7213C22.4288 15.6028 21.0077 16.3134 20.1491 17.5273V16.2246H16.537V27.6827H20.1491V20.8433C20.1491 20.8433 20.4748 18.83 22.1624 18.83C23.85 18.83 24.1757 20.6953 24.1757 21.1986V27.6531H27.7878V20.8433C27.7878 18.6524 26.9588 15.7213 23.9388 15.7213Z" fill="white"/>
</svg>
