<svg width="133" height="35" viewBox="0 0 133 35" fill="none" xmlns="http://www.w3.org/2000/svg">
<path d="M15.1586 17.1144C12.3803 17.0915 10.4603 14.6434 10.5281 12.2638C10.5958 9.86142 12.6287 7.57341 15.2263 7.68781C17.6658 7.66493 19.8794 9.8843 19.8343 12.4697C19.7891 15.0094 17.6658 17.1602 15.1586 17.1144ZM15.2715 4.16428C10.7314 3.98124 7.18506 7.96238 7.07212 12.1494C6.98177 16.3136 10.2796 20.5464 15.136 20.5922C19.5406 20.6379 23.2224 16.9085 23.2902 12.4926C23.3805 7.98526 19.518 4.09564 15.2715 4.16428Z" fill="#3CB5EA"/>
<path d="M7.09631 20.5696C4.95047 18.213 3.73072 15.1013 3.79848 11.9896C3.86625 9.1296 5.04082 6.33823 6.96078 4.1875H2.2851C0.907242 6.52127 0.0714911 9.17536 0.00372762 11.8752C-0.0640359 14.8954 0.794303 17.9384 2.39804 20.5696H7.09631Z" fill="#3CB5EA"/>
<path d="M23.342 4.16504C25.375 6.38441 26.6399 9.33594 26.5721 12.4934C26.5043 15.5593 25.262 18.3964 23.2969 20.5472H28.0177C29.4634 18.1905 30.3217 15.4449 30.3669 12.562C30.412 9.51898 29.5537 6.63609 28.0403 4.16504H23.342Z" fill="#3CB5EA"/>
<path d="M48.9789 17.1144C46.2006 17.0915 44.2806 14.6434 44.3484 12.2638C44.4161 9.86142 46.449 7.57341 49.0466 7.68781C51.4861 7.66493 53.6997 9.8843 53.6546 12.4697C53.6094 15.0094 51.4861 17.1602 48.9789 17.1144ZM49.0918 4.16428C44.5517 3.98124 41.0054 7.96238 40.8924 12.1494C40.8021 16.3136 44.0999 20.5464 48.9563 20.5922C53.3609 20.6379 57.0427 16.9085 57.1105 12.4926C57.2009 7.98526 53.3383 4.09564 49.0918 4.16428Z" fill="#00004D"/>
<path d="M106.104 17.1144C103.326 17.0915 101.406 14.6434 101.473 12.2638C101.541 9.86142 103.574 7.57341 106.172 7.68781C108.611 7.66493 110.825 9.8843 110.78 12.4697C110.734 15.0094 108.634 17.1602 106.104 17.1144ZM106.217 4.16428C101.677 3.98124 98.1304 7.96238 98.0174 12.1494C97.9271 16.3136 101.225 20.5464 106.081 20.5922C110.486 20.6379 114.168 16.9085 114.236 12.4926C114.326 7.98526 110.486 4.09564 106.217 4.16428Z" fill="#00004D"/>
<path d="M67.1134 4.11838C62.5733 3.93534 59.027 7.91647 58.9141 12.1035C58.9141 12.1722 58.9141 12.2637 58.9141 12.3323V20.592H62.37V12.3323C62.37 12.3094 62.37 12.2637 62.37 12.2408C62.4378 9.8384 64.4707 7.55039 67.0683 7.66479C69.4852 7.64191 71.6536 9.81552 71.6762 12.3552V20.6149H75.1321V12.3552C75.1547 7.89359 71.3374 4.07262 67.1134 4.11838Z" fill="#00004D"/>
<path d="M132.187 12.3323C132.187 7.89359 128.392 4.07262 124.168 4.11838C119.628 3.93534 116.082 7.91647 115.969 12.1035C115.969 12.1722 115.969 12.2637 115.969 12.3323V20.592H119.425V12.3323C119.425 12.3094 119.425 12.2637 119.425 12.2408C119.492 9.8384 121.525 7.55039 124.123 7.66479C126.54 7.64191 128.708 9.81552 128.731 12.3552V20.6149H132.187V12.3323Z" fill="#00004D"/>
<path d="M89.0469 12.1037C89.0469 12.1723 89.0469 12.2638 89.0469 12.3325V20.5922H92.5028V12.3325C92.5028 12.3096 92.5028 12.2638 92.5028 12.241C92.5706 9.86143 94.5809 7.59631 97.1559 7.66495V4.14142C92.6609 3.98126 89.1372 7.93951 89.0469 12.1037Z" fill="#00004D"/>
<path d="M81.7981 4.11841V0H78.3422V4.11841V4.14129H76.0156V7.64194H78.3422V12.3781C78.3422 16.8168 82.1369 20.6378 86.3609 20.5921C86.3834 20.5921 86.406 20.5921 86.4512 20.5921V17.0685C86.4286 17.0685 86.4286 17.0685 86.406 17.0685C83.9891 17.0914 81.8207 14.9178 81.7981 12.3781V7.64194H86.4512V4.14129L81.7981 4.11841Z" fill="#00004D"/>
<path d="M129.891 28.771C130.331 28.771 130.725 28.8626 131.071 29.0457C131.423 29.2288 131.698 29.5001 131.895 29.8595C132.091 30.2189 132.19 30.653 132.19 31.1616V34.4678H131.04V31.3346C131.04 30.8327 130.915 30.4495 130.664 30.185C130.413 29.9138 130.07 29.7781 129.636 29.7781C129.202 29.7781 128.856 29.9138 128.599 30.185C128.348 30.4495 128.222 30.8327 128.222 31.3346V34.4678H127.062V28.8626H128.222V29.5034C128.412 29.2729 128.653 29.0931 128.944 28.9643C129.243 28.8354 129.558 28.771 129.891 28.771Z" fill="#161616"/>
<path d="M125.915 31.5279C125.915 31.7381 125.901 31.928 125.874 32.0975H121.591C121.625 32.5451 121.791 32.9046 122.089 33.1759C122.388 33.4471 122.754 33.5828 123.188 33.5828C123.812 33.5828 124.253 33.3217 124.511 32.7995H125.762C125.592 33.3149 125.284 33.7388 124.836 34.0711C124.395 34.3966 123.846 34.5594 123.188 34.5594C122.652 34.5594 122.171 34.4407 121.744 34.2033C121.323 33.9592 120.991 33.6201 120.747 33.186C120.509 32.7452 120.391 32.2366 120.391 31.6601C120.391 31.0836 120.506 30.5784 120.737 30.1443C120.974 29.7035 121.303 29.3644 121.723 29.127C122.151 28.8897 122.639 28.771 123.188 28.771C123.717 28.771 124.189 28.8863 124.602 29.1169C125.016 29.3475 125.338 29.673 125.569 30.0935C125.799 30.5072 125.915 30.9853 125.915 31.5279ZM124.704 31.1616C124.697 30.7344 124.545 30.3919 124.246 30.1342C123.948 29.8765 123.578 29.7476 123.137 29.7476C122.737 29.7476 122.395 29.8765 122.11 30.1342C121.825 30.3851 121.655 30.7276 121.601 31.1616H124.704Z" fill="#161616"/>
<path d="M113.5 31.6393C113.5 31.0764 113.615 30.578 113.846 30.1439C114.083 29.7099 114.402 29.3742 114.802 29.1368C115.209 28.8927 115.66 28.7706 116.155 28.7706C116.521 28.7706 116.881 28.852 117.233 29.0147C117.593 29.1707 117.878 29.3809 118.088 29.6454V26.9395H119.258V34.4674H118.088V33.623C117.898 33.8943 117.634 34.1181 117.294 34.2945C116.962 34.4708 116.579 34.559 116.145 34.559C115.657 34.559 115.209 34.4369 114.802 34.1927C114.402 33.9418 114.083 33.5959 113.846 33.1551C113.615 32.7075 113.5 32.2022 113.5 31.6393ZM118.088 31.6597C118.088 31.2731 118.007 30.9374 117.844 30.6526C117.688 30.3677 117.481 30.1507 117.223 30.0015C116.966 29.8523 116.688 29.7777 116.389 29.7777C116.091 29.7777 115.813 29.8523 115.555 30.0015C115.297 30.1439 115.087 30.3575 114.924 30.6424C114.768 30.9204 114.69 31.2528 114.69 31.6393C114.69 32.0259 114.768 32.365 114.924 32.6566C115.087 32.9482 115.297 33.172 115.555 33.328C115.819 33.4772 116.097 33.5518 116.389 33.5518C116.688 33.5518 116.966 33.4772 117.223 33.328C117.481 33.1788 117.688 32.9618 117.844 32.677C118.007 32.3853 118.088 32.0462 118.088 31.6597Z" fill="#161616"/>
<path d="M110.109 28.771C110.55 28.771 110.943 28.8626 111.289 29.0457C111.642 29.2288 111.917 29.5001 112.113 29.8595C112.31 30.2189 112.408 30.653 112.408 31.1616V34.4678H111.259V31.3346C111.259 30.8327 111.133 30.4495 110.882 30.185C110.632 29.9138 110.289 29.7781 109.855 29.7781C109.421 29.7781 109.075 29.9138 108.817 30.185C108.566 30.4495 108.441 30.8327 108.441 31.3346V34.4678H107.281V28.8626H108.441V29.5034C108.631 29.2729 108.872 29.0931 109.163 28.9643C109.462 28.8354 109.777 28.771 110.109 28.771Z" fill="#161616"/>
<path d="M105.752 28.8628V34.4681H104.592V33.8068C104.409 34.0374 104.169 34.2205 103.87 34.3562C103.579 34.485 103.267 34.5494 102.934 34.5494C102.493 34.5494 102.097 34.4579 101.744 34.2748C101.398 34.0917 101.123 33.8204 100.92 33.4609C100.723 33.1015 100.625 32.6675 100.625 32.1588V28.8628H101.775V31.9859C101.775 32.4877 101.9 32.8743 102.151 33.1456C102.402 33.4101 102.744 33.5423 103.178 33.5423C103.612 33.5423 103.955 33.4101 104.206 33.1456C104.464 32.8743 104.592 32.4877 104.592 31.9859V28.8628H105.752Z" fill="#161616"/>
<path d="M98.1306 34.4686L95.3941 31.3048V34.4686H94.2344V27.3984H95.3941V30.6232L98.1408 27.3984H99.5955L96.5233 30.9386L99.6464 34.4686H98.1306Z" fill="#161616"/>
<path d="M88.855 29.6764C89.0246 29.3915 89.2484 29.1711 89.5264 29.0151C89.8113 28.8524 90.147 28.771 90.5336 28.771V29.9714H90.2385C89.7841 29.9714 89.4383 30.0867 89.2009 30.3173C88.9703 30.5479 88.855 30.948 88.855 31.5177V34.4678H87.6953V28.8626H88.855V29.6764Z" fill="#161616"/>
<path d="M86.1584 28.8621V34.4674H84.9987V33.8062C84.8156 34.0367 84.5748 34.2199 84.2764 34.3555C83.9848 34.4844 83.6728 34.5488 83.3405 34.5488C82.8997 34.5488 82.5029 34.4572 82.1503 34.2741C81.8044 34.091 81.5297 33.8197 81.3263 33.4603C81.1296 33.1008 81.0312 32.6668 81.0312 32.1582V28.8621H82.1808V31.9852C82.1808 32.4871 82.3063 32.8736 82.5572 33.1449C82.8081 33.4094 83.1506 33.5417 83.5846 33.5417C84.0187 33.5417 84.3612 33.4094 84.6121 33.1449C84.8698 32.8736 84.9987 32.4871 84.9987 31.9852V28.8621H86.1584ZM82.7505 28.1602C82.5809 28.1602 82.4351 28.1026 82.313 27.9873C82.1977 27.8652 82.1401 27.7194 82.1401 27.5498C82.1401 27.3803 82.1977 27.2379 82.313 27.1226C82.4351 27.0005 82.5809 26.9395 82.7505 26.9395C82.92 26.9395 83.0624 27.0005 83.1777 27.1226C83.2998 27.2379 83.3608 27.3803 83.3608 27.5498C83.3608 27.7194 83.2998 27.8652 83.1777 27.9873C83.0624 28.1026 82.92 28.1602 82.7505 28.1602ZM84.5002 28.1602C84.3307 28.1602 84.1848 28.1026 84.0628 27.9873C83.9475 27.8652 83.8898 27.7194 83.8898 27.5498C83.8898 27.3803 83.9475 27.2379 84.0628 27.1226C84.1848 27.0005 84.3307 26.9395 84.5002 26.9395C84.6698 26.9395 84.8122 27.0005 84.9275 27.1226C85.0495 27.2379 85.1106 27.3803 85.1106 27.5498C85.1106 27.7194 85.0495 27.8652 84.9275 27.9873C84.8122 28.1026 84.6698 28.1602 84.5002 28.1602Z" fill="#161616"/>
<path d="M80.0563 29.809H79.0186V34.4682H77.8487V29.809H77.1875V28.863H77.8487V28.4662C77.8487 27.8219 78.0183 27.354 78.3574 27.0624C78.7033 26.7639 79.2424 26.6147 79.9749 26.6147V27.5812C79.6222 27.5812 79.3747 27.649 79.2323 27.7846C79.0898 27.9135 79.0186 28.1407 79.0186 28.4662V28.863H80.0563V29.809Z" fill="#161616"/>
</svg>
