<svg width="133" height="21" viewBox="0 0 133 21" fill="none" xmlns="http://www.w3.org/2000/svg">
<path d="M15.1605 17.1146C12.3822 17.0917 10.4623 14.6435 10.53 12.264C10.5978 9.86161 12.6307 7.57361 15.2283 7.68801C17.6678 7.66513 19.8814 9.88449 19.8362 12.4699C19.791 15.0096 17.6678 17.1603 15.1605 17.1146ZM15.2735 4.16447C10.7333 3.98143 7.18702 7.96257 7.07408 12.1496C6.98373 16.3138 10.2815 20.5466 15.1379 20.5924C19.5426 20.6381 23.2244 16.9087 23.2921 12.4928C23.3825 7.98545 19.52 4.09583 15.2735 4.16447Z" fill="#3CB5EA"/>
<path d="M7.09631 20.5696C4.95047 18.213 3.73072 15.1013 3.79848 11.9896C3.86625 9.1296 5.04082 6.33823 6.96078 4.1875H2.2851C0.907242 6.52127 0.0714911 9.17536 0.00372762 11.8752C-0.0640359 14.8954 0.794303 17.9384 2.39804 20.5696H7.09631Z" fill="#3CB5EA"/>
<path d="M23.3381 4.16504C25.371 6.38441 26.636 9.33594 26.5682 12.4934C26.5004 15.5593 25.2581 18.3964 23.293 20.5472H28.0138C29.4594 18.1905 30.3178 15.4449 30.363 12.562C30.4081 9.51898 29.5498 6.63609 28.0364 4.16504H23.3381Z" fill="#3CB5EA"/>
<path d="M48.975 17.1144C46.1967 17.0915 44.2767 14.6434 44.3445 12.2638C44.4122 9.86142 46.4451 7.57341 49.0427 7.68781C51.4822 7.66493 53.6958 9.8843 53.6507 12.4697C53.6055 15.0094 51.4822 17.1602 48.975 17.1144ZM49.0879 4.16428C44.5478 3.98124 41.0015 7.96238 40.8885 12.1494C40.7982 16.3136 44.096 20.5464 48.9524 20.5922C53.357 20.6379 57.0388 16.9085 57.1066 12.4926C57.197 7.98526 53.3344 4.09564 49.0879 4.16428Z" fill="#00004D"/>
<path d="M106.1 17.1144C103.322 17.0915 101.402 14.6434 101.469 12.2638C101.537 9.86142 103.57 7.57341 106.168 7.68781C108.607 7.66493 110.821 9.8843 110.776 12.4697C110.73 15.0094 108.63 17.1602 106.1 17.1144ZM106.213 4.16428C101.673 3.98124 98.1265 7.96238 98.0135 12.1494C97.9232 16.3136 101.221 20.5464 106.077 20.5922C110.482 20.6379 114.164 16.9085 114.232 12.4926C114.322 7.98526 110.482 4.09564 106.213 4.16428Z" fill="#00004D"/>
<path d="M67.1134 4.11838C62.5733 3.93534 59.027 7.91647 58.9141 12.1035C58.9141 12.1722 58.9141 12.2637 58.9141 12.3323V20.592H62.37V12.3323C62.37 12.3094 62.37 12.2637 62.37 12.2408C62.4378 9.8384 64.4707 7.55039 67.0683 7.66479C69.4852 7.64191 71.6536 9.81552 71.6762 12.3552V20.6149H75.1321V12.3552C75.1547 7.89359 71.3374 4.07262 67.1134 4.11838Z" fill="#00004D"/>
<path d="M132.187 12.3323C132.187 7.89359 128.392 4.07262 124.168 4.11838C119.628 3.93534 116.082 7.91647 115.969 12.1035C115.969 12.1722 115.969 12.2637 115.969 12.3323V20.592H119.425V12.3323C119.425 12.3094 119.425 12.2637 119.425 12.2408C119.492 9.8384 121.525 7.55039 124.123 7.66479C126.54 7.64191 128.708 9.81552 128.731 12.3552V20.6149H132.187V12.3323Z" fill="#00004D"/>
<path d="M89.0469 12.1037C89.0469 12.1723 89.0469 12.2638 89.0469 12.3325V20.5922H92.5028V12.3325C92.5028 12.3096 92.5028 12.2638 92.5028 12.241C92.5706 9.86143 94.5809 7.59631 97.1559 7.66495V4.14142C92.6609 3.98126 89.1372 7.93951 89.0469 12.1037Z" fill="#00004D"/>
<path d="M81.7942 4.11841V0H78.3383V4.11841V4.14129H76.0117V7.64194H78.3383V12.3781C78.3383 16.8168 82.133 20.6378 86.357 20.5921C86.3795 20.5921 86.4021 20.5921 86.4473 20.5921V17.0685C86.4247 17.0685 86.4247 17.0685 86.4021 17.0685C83.9852 17.0914 81.8168 14.9178 81.7942 12.3781V7.64194H86.4473V4.14129L81.7942 4.11841Z" fill="#00004D"/>
</svg>
