<svg width="21" height="20" viewBox="0 0 21 20" fill="none" xmlns="http://www.w3.org/2000/svg">
<mask id="mask0_1197_13836" style="mask-type:alpha" maskUnits="userSpaceOnUse" x="0" y="0" width="21" height="20">
<rect x="0.5" width="20" height="20" fill="#009FE3"/>
</mask>
<g mask="url(#mask0_1197_13836)">
<path d="M5.0003 15.4998H5.92658L14.1237 7.30267L13.1975 6.3764L5.0003 14.5735V15.4998ZM3.91699 16.5831V14.1168L14.284 3.73382C14.3961 3.61936 14.5168 3.53786 14.6459 3.48932C14.7751 3.44077 14.9104 3.4165 15.052 3.4165C15.1936 3.4165 15.3288 3.43921 15.4577 3.48463C15.5865 3.53003 15.7113 3.61042 15.832 3.7258L16.7663 4.65207C16.8817 4.77279 16.9634 4.89782 17.0115 5.02715C17.0596 5.15647 17.0836 5.28955 17.0836 5.4264C17.0836 5.57236 17.0583 5.71168 17.0077 5.84438C16.9571 5.97706 16.8767 6.09831 16.7663 6.20813L6.3833 16.5831H3.91699ZM13.6525 6.84767L13.1975 6.3764L14.1237 7.30267L13.6525 6.84767Z" fill="#009FE3"/>
</g>
</svg>
