<svg width="119" height="119" viewBox="0 0 119 119" fill="none" xmlns="http://www.w3.org/2000/svg">
<path d="M59.2691 95C79.0022 95 94.9991 79.0032 94.9991 59.27C94.9991 39.5369 79.0022 23.54 59.2691 23.54C39.5359 23.54 23.5391 39.5369 23.5391 59.27C23.5391 79.0032 39.5359 95 59.2691 95Z" fill="#FFCE6B"/>
<path d="M102.495 59.2695C102.495 73.2195 95.885 85.6295 85.625 93.5295" stroke="#FFEBB3" stroke-width="7.5047" stroke-miterlimit="10" stroke-linecap="round" stroke-linejoin="round"/>
<path d="M30.2869 91.34C21.5369 83.43 16.0469 71.99 16.0469 59.27C16.0469 35.39 35.3969 16.04 59.2769 16.04C71.2169 16.04 82.0269 20.88 89.8469 28.7" stroke="#FFEBB3" stroke-width="7.5047" stroke-miterlimit="10" stroke-linecap="round" stroke-linejoin="round"/>
<path d="M13.4375 28.3701C20.7675 17.5201 31.8475 9.41016 44.8275 5.91016" stroke="#FFEBB3" stroke-width="7.5047" stroke-miterlimit="10" stroke-linecap="round" stroke-linejoin="round"/>
<path d="M59.27 114.54C28.74 114.54 4 89.7895 4 59.2695" stroke="#FFEBB3" stroke-width="7.5047" stroke-miterlimit="10" stroke-linecap="round" stroke-linejoin="round"/>
<path d="M98.3612 98.3496C88.3612 108.35 74.5413 114.54 59.2812 114.54" stroke="#FFEBB3" stroke-width="7.5047" stroke-miterlimit="10" stroke-linecap="round" stroke-linejoin="round"/>
<path d="M59.2656 4C89.7856 4 114.536 28.75 114.536 59.27" stroke="#FFEBB3" stroke-width="7.5047" stroke-miterlimit="10" stroke-linecap="round" stroke-linejoin="round"/>
<path d="M67.5056 50.0906L78.4256 48.3006C79.5656 48.1106 79.5656 46.4706 78.4256 46.2806L67.5056 44.4906C67.0956 44.4206 66.7656 44.1106 66.6756 43.7106L64.9156 36.0606C64.6756 35.0006 63.1656 35.0006 62.9256 36.0606L61.1556 43.7606C61.0656 44.1406 60.7656 44.4406 60.3856 44.5306L52.6856 46.3006C51.6256 46.5406 51.6256 48.0506 52.6856 48.2906L60.3856 50.0606C60.7656 50.1506 61.0656 50.4506 61.1556 50.8306L62.9256 58.5306C63.1656 59.5906 64.6756 59.5906 64.9156 58.5306L66.6756 50.8806C66.7656 50.4606 67.0956 50.1506 67.5056 50.0906Z" fill="white"/>
<path d="M54.2031 74.5424L54.2031 83.2725L63.0931 83.2725L63.0931 74.5424L54.2031 74.5424Z" fill="white"/>
<path d="M39.2734 62.8716L39.2734 71.6016L48.1634 71.6016L48.1634 62.8716L39.2734 62.8716Z" fill="#FFF2CF"/>
</svg>
