<svg width="119" height="119" viewBox="0 0 119 119" fill="none" xmlns="http://www.w3.org/2000/svg">
<path d="M59.5894 95.3584C79.3225 95.3584 95.3194 79.3615 95.3194 59.6284C95.3194 39.8953 79.3225 23.8984 59.5894 23.8984C39.8563 23.8984 23.8594 39.8953 23.8594 59.6284C23.8594 79.3615 39.8563 95.3584 59.5894 95.3584Z" fill="#3CB5EA"/>
<path d="M102.823 59.6289C102.823 73.5789 96.2131 85.9889 85.9531 93.8889" stroke="#B8E2F5" stroke-width="7.5047" stroke-miterlimit="10" stroke-linecap="round" stroke-linejoin="round"/>
<path d="M30.615 91.6994C21.865 83.7894 16.375 72.3494 16.375 59.6294C16.375 35.7494 35.725 16.3994 59.605 16.3994C71.545 16.3994 82.355 21.2394 90.175 29.0594" stroke="#B8E2F5" stroke-width="7.5047" stroke-miterlimit="10" stroke-linecap="round" stroke-linejoin="round"/>
<path d="M13.7578 28.7295C21.0878 17.8795 32.1678 9.76953 45.1478 6.26953" stroke="#B8E2F5" stroke-width="7.5047" stroke-miterlimit="10" stroke-linecap="round" stroke-linejoin="round"/>
<path d="M59.5903 114.899C29.0603 114.899 4.32031 90.1489 4.32031 59.6289" stroke="#B8E2F5" stroke-width="7.5047" stroke-miterlimit="10" stroke-linecap="round" stroke-linejoin="round"/>
<path d="M98.6815 98.709C88.6815 108.709 74.8616 114.899 59.6016 114.899" stroke="#B8E2F5" stroke-width="7.5047" stroke-miterlimit="10" stroke-linecap="round" stroke-linejoin="round"/>
<path d="M59.5938 4.35938C90.1138 4.35938 114.864 29.1094 114.864 59.6294" stroke="#B8E2F5" stroke-width="7.5047" stroke-miterlimit="10" stroke-linecap="round" stroke-linejoin="round"/>
<path d="M67.8181 50.448L78.7381 48.658C79.8781 48.468 79.8781 46.828 78.7381 46.638L67.8181 44.848C67.4081 44.778 67.0781 44.468 66.9881 44.068L65.2281 36.418C64.9881 35.358 63.4781 35.358 63.2381 36.418L61.4681 44.1181C61.3781 44.4981 61.0781 44.798 60.6981 44.888L52.9981 46.658C51.9381 46.898 51.9381 48.4081 52.9981 48.6481L60.6981 50.418C61.0781 50.508 61.3781 50.808 61.4681 51.188L63.2381 58.888C63.4781 59.948 64.9881 59.948 65.2281 58.888L66.9881 51.2381C67.0781 50.8181 67.4081 50.508 67.8181 50.448Z" fill="white"/>
<path d="M54.5234 74.8999L54.5234 83.6299L63.4135 83.6299L63.4135 74.8999L54.5234 74.8999Z" fill="white"/>
<path d="M39.5937 63.2287L39.5938 71.9587L48.4837 71.9587L48.4837 63.2287L39.5937 63.2287Z" fill="#AADFF6"/>
</svg>
