<svg width="150" height="150" viewBox="0 0 150 150" fill="none" xmlns="http://www.w3.org/2000/svg">
<path d="M75.0617 120.354C100.076 120.354 120.354 100.076 120.354 75.0618C120.354 50.0475 100.076 29.7695 75.0617 29.7695C50.0475 29.7695 29.7694 50.0475 29.7694 75.0618C29.7694 100.076 50.0475 120.354 75.0617 120.354Z" fill="#FF8941"/>
<path d="M129.861 75.0618C129.861 92.7452 121.482 108.476 108.476 118.491" stroke="#FFCABF" stroke-width="9.51316" stroke-miterlimit="10" stroke-linecap="round" stroke-linejoin="round"/>
<path d="M38.3132 115.715C27.2215 105.688 20.2622 91.186 20.2622 75.0618C20.2622 44.7908 44.7908 20.2623 75.0617 20.2623C90.1972 20.2623 103.9 26.3975 113.813 36.3104" stroke="#FFCABF" stroke-width="9.51316" stroke-miterlimit="10" stroke-linecap="round" stroke-linejoin="round"/>
<path d="M16.9664 35.8922C26.2581 22.1384 40.3034 11.858 56.7572 7.42126" stroke="#FFCABF" stroke-width="9.51316" stroke-miterlimit="10" stroke-linecap="round" stroke-linejoin="round"/>
<path d="M75.0617 145.124C36.3611 145.124 5 113.75 5 75.0618" stroke="#FFCABF" stroke-width="9.51316" stroke-miterlimit="10" stroke-linecap="round" stroke-linejoin="round"/>
<path d="M124.601 124.601C111.924 137.277 94.4058 145.123 75.0618 145.123" stroke="#FFCABF" stroke-width="9.51316" stroke-miterlimit="10" stroke-linecap="round" stroke-linejoin="round"/>
<path d="M75.0618 5C113.75 5 145.124 36.3738 145.124 75.0617" stroke="#FFCABF" stroke-width="9.51316" stroke-miterlimit="10" stroke-linecap="round" stroke-linejoin="round"/>
<path d="M85.4816 63.4249L99.3241 61.1558C100.769 60.915 100.769 58.8361 99.3241 58.5952L85.4816 56.3262C84.9619 56.2374 84.5436 55.8445 84.4295 55.3374L82.1985 45.6401C81.8942 44.2964 79.9801 44.2964 79.6759 45.6401L77.4322 55.4008C77.3181 55.8825 76.9378 56.2628 76.4561 56.3769L66.6954 58.6206C65.3517 58.9248 65.3517 60.8389 66.6954 61.1432L76.4561 63.3869C76.9378 63.501 77.3181 63.8812 77.4322 64.3629L79.6759 74.1237C79.9801 75.4674 81.8942 75.4674 82.1985 74.1237L84.4295 64.4263C84.5436 63.8939 84.9619 63.5009 85.4816 63.4249Z" fill="white"/>
<path d="M68.634 94.4261L68.634 105.492L79.9033 105.492L79.9033 94.4261L68.634 94.4261Z" fill="white"/>
<path d="M49.7062 79.6181L49.7062 90.6844L60.9754 90.6844L60.9754 79.6181L49.7062 79.6181Z" fill="#FFB9AB"/>
</svg>
