<svg width="78" height="78" viewBox="0 0 78 78" fill="none" xmlns="http://www.w3.org/2000/svg">
<path d="M5.38281 32.0783V7.90725C5.38281 6.01553 6.91592 4.48242 8.80765 4.48242H32.9786C34.8704 4.48242 36.4035 6.01553 36.4035 7.90725V32.0783C36.4035 33.97 34.8704 35.5031 32.9786 35.5031H8.80765C6.92489 35.5031 5.38281 33.97 5.38281 32.0783Z" fill="white"/>
<path d="M5.38281 69.3029V45.1319C5.38281 43.2401 6.91592 41.707 8.80765 41.707H32.9786C34.8704 41.707 36.4035 43.2401 36.4035 45.1319V69.3029C36.4035 71.1946 34.8704 72.7277 32.9786 72.7277H8.80765C6.92489 72.7277 5.38281 71.1946 5.38281 69.3029Z" fill="white"/>
<path d="M16.1406 60.822V53.3806C16.1406 52.8069 16.5979 52.3496 17.1717 52.3496H24.613C25.1868 52.3496 25.6441 52.8069 25.6441 53.3806V60.822C25.6441 61.3958 25.1868 61.8531 24.613 61.8531H17.1717C16.5979 61.862 16.1406 61.3869 16.1406 60.822Z" fill="#CCCCCC"/>
<path d="M42.2656 69.3029V45.1319C42.2656 43.2401 43.7988 41.707 45.6905 41.707H69.8615C71.7532 41.707 73.2864 43.2401 73.2864 45.1319V69.3029C73.2864 71.1946 71.7532 72.7277 69.8615 72.7277H45.6905C43.7988 72.7277 42.2656 71.1946 42.2656 69.3029Z" fill="white"/>
<path d="M53.0234 60.9382V53.4969C53.0234 52.9231 53.4807 52.4658 54.0545 52.4658H61.4959C62.0697 52.4658 62.527 52.9231 62.527 53.4969V60.9382C62.527 61.512 62.0697 61.9693 61.4959 61.9693H54.0545C53.4807 61.9782 53.0234 61.5031 53.0234 60.9382Z" fill="#CCCCCC"/>
<path d="M42.2656 32.0783V7.90725C42.2656 6.01553 43.7988 4.48242 45.6905 4.48242H69.8615C71.7532 4.48242 73.2864 6.01553 73.2864 7.90725V32.0783C73.2864 33.97 71.7532 35.5031 69.8615 35.5031H45.6905C43.7988 35.5031 42.2656 33.97 42.2656 32.0783Z" fill="white"/>
<path d="M53.0234 23.7136V16.2722C53.0234 15.6985 53.4807 15.2412 54.0545 15.2412H61.4959C62.0697 15.2412 62.527 15.6985 62.527 16.2722V23.7136C62.527 24.2874 62.0697 24.7447 61.4959 24.7447H54.0545C53.4807 24.7447 53.0234 24.2785 53.0234 23.7136Z" fill="#CCCCCC"/>
<path d="M16.7812 20.7462L20.233 25.5069L26.8675 16.0752" stroke="#7CE6E6" stroke-width="3.3739" stroke-miterlimit="10" stroke-linecap="round" stroke-linejoin="round"/>
</svg>
