<svg width="78" height="78" viewBox="0 0 78 78" fill="none" xmlns="http://www.w3.org/2000/svg">
<path d="M11.6562 66.5955V13.5286C11.6562 9.96032 14.5521 7.06445 18.1204 7.06445H60.3569C63.9252 7.06445 66.8211 9.96032 66.8211 13.5286V66.5955C66.8211 70.1638 63.9252 73.0596 60.3569 73.0596H18.1204C14.5611 73.0596 11.6562 70.1638 11.6562 66.5955Z" fill="white"/>
<path d="M21.8594 7.36035V7.34242C21.8594 5.76449 23.1414 4.48242 24.7194 4.48242H53.7856C55.3635 4.48242 56.6456 5.76449 56.6456 7.34242V7.36035C56.6456 8.93828 55.3635 10.2204 53.7856 10.2204H24.7194C23.1414 10.2114 21.8594 8.93828 21.8594 7.36035Z" fill="#CCCCCC"/>
<path d="M23.1562 27.2549H37.1245" stroke="#B6B6B6" stroke-width="3.116" stroke-miterlimit="10" stroke-linecap="round" stroke-linejoin="round"/>
<path d="M23.1562 32.876H31.1804" stroke="#B6B6B6" stroke-width="3.116" stroke-miterlimit="10" stroke-linecap="round" stroke-linejoin="round"/>
<path d="M23.1562 50.2246H37.1245" stroke="#B6B6B6" stroke-width="3.116" stroke-miterlimit="10" stroke-linecap="round" stroke-linejoin="round"/>
<path d="M23.1562 55.8457H31.1804" stroke="#B6B6B6" stroke-width="3.116" stroke-miterlimit="10" stroke-linecap="round" stroke-linejoin="round"/>
<path d="M44.2031 56.7605V49.3191C44.2031 48.7453 44.6604 48.2881 45.2342 48.2881H52.6755C53.2493 48.2881 53.7066 48.7453 53.7066 49.3191V56.7605C53.7066 57.3343 53.2493 57.7915 52.6755 57.7915H45.2342C44.6604 57.7915 44.2031 57.3253 44.2031 56.7605Z" fill="#CCCCCC"/>
<path d="M45.25 28.3302L48.7107 33.0909L55.3452 23.6592" stroke="#7CE6E6" stroke-width="3.3739" stroke-miterlimit="10" stroke-linecap="round" stroke-linejoin="round"/>
</svg>
