<svg width="74" height="65" viewBox="0 0 74 65" fill="none" xmlns="http://www.w3.org/2000/svg">
<path d="M0.703125 21.5484H60.5554L33.3081 1.00644C31.7607 -0.0994102 29.77 -0.107788 28.2226 0.998062L0.703125 21.5484Z" fill="#CCCCCC"/>
<path d="M60.5554 21.4648H0.703125L30.4932 42.7525L60.5554 21.4648Z" fill="#CCCCCC"/>
<path d="M49.673 7.50781H11.5703V51.0716H49.673V7.50781Z" fill="white"/>
<path d="M60.4465 21.54L30.4931 42.7606L0.804136 21.54H0.6875V53.8862C0.6875 59.4992 4.89434 64.0566 10.0887 64.0566H51.1619C56.3563 64.0566 60.5631 59.4992 60.5631 53.8862V21.54H60.4465Z" fill="#F5F5F5"/>
<path d="M22.0625 19.9814H40.725" stroke="#CCCCCC" stroke-width="2.7189" stroke-miterlimit="10" stroke-linecap="round" stroke-linejoin="round"/>
<path d="M22.0625 27.5215H32.6146" stroke="#CCCCCC" stroke-width="2.7189" stroke-miterlimit="10" stroke-linecap="round" stroke-linejoin="round"/>
<path d="M52.2601 34.5332H62.5867C63.2399 34.5332 63.7687 35.1029 63.7687 35.8066V43.7151C63.7687 44.4188 63.2399 44.9885 62.5867 44.9885H52.2601C51.6069 44.9885 51.0781 44.4188 51.0781 43.7151V35.8066C51.0781 35.1029 51.6069 34.5332 52.2601 34.5332Z" fill="#7CE6E6"/>
<path d="M64.3428 31.9618L73.0831 38.731C73.7363 39.242 73.7363 40.2892 73.0831 40.7919L64.3428 47.561C63.5652 48.1642 62.4766 47.561 62.4766 46.5306V32.9923C62.4766 31.9618 63.5652 31.3586 64.3428 31.9618Z" fill="#7CE6E6"/>
</svg>
