<svg width="78" height="78" viewBox="0 0 78 78" fill="none" xmlns="http://www.w3.org/2000/svg">
<path d="M65.398 5.37891H13.5018C8.52241 5.37891 4.48438 9.12663 4.48438 13.7541V18.1H74.4154V13.7541C74.4154 9.12663 70.3774 5.37891 65.398 5.37891Z" fill="#CCCCCC"/>
<path d="M4.48438 64.7702C4.48438 69.3976 8.52241 73.1453 13.5018 73.1453H65.398C70.3774 73.1453 74.4154 69.3976 74.4154 64.7702V18.0996H4.48438V64.7702Z" fill="white"/>
<path d="M12.0863 13.613C12.8588 13.613 13.4851 12.9868 13.4851 12.2142C13.4851 11.4417 12.8588 10.8154 12.0863 10.8154C11.3138 10.8154 10.6875 11.4417 10.6875 12.2142C10.6875 12.9868 11.3138 13.613 12.0863 13.613Z" fill="white"/>
<path d="M17.3129 13.613C18.0854 13.613 18.7116 12.9868 18.7116 12.2142C18.7116 11.4417 18.0854 10.8154 17.3129 10.8154C16.5403 10.8154 15.9141 11.4417 15.9141 12.2142C15.9141 12.9868 16.5403 13.613 17.3129 13.613Z" fill="white"/>
<path d="M22.5316 13.613C23.3041 13.613 23.9304 12.9868 23.9304 12.2142C23.9304 11.4417 23.3041 10.8154 22.5316 10.8154C21.7591 10.8154 21.1328 11.4417 21.1328 12.2142C21.1328 12.9868 21.7591 13.613 22.5316 13.613Z" fill="white"/>
<path d="M35.8634 29.3343L22.4825 52.5156C20.8902 55.278 22.8784 58.7266 26.0719 58.7266H52.8426C56.0272 58.7266 58.0243 55.278 56.4319 52.5156L43.0334 29.3343C41.441 26.5631 37.4558 26.5631 35.8634 29.3343Z" fill="#7CE6E6"/>
<path d="M39.4688 34.5859V45.4244" stroke="white" stroke-width="5.6671" stroke-miterlimit="10" stroke-linecap="round" stroke-linejoin="round"/>
<path d="M39.4526 54.9872C40.8373 54.9872 41.9599 53.8647 41.9599 52.4799C41.9599 51.0952 40.8373 49.9727 39.4526 49.9727C38.0679 49.9727 36.9453 51.0952 36.9453 52.4799C36.9453 53.8647 38.0679 54.9872 39.4526 54.9872Z" fill="white"/>
</svg>
