<svg width="32" height="32" viewBox="0 0 32 32" fill="none" xmlns="http://www.w3.org/2000/svg">
<rect y="0.5" width="32" height="31" rx="15.5" fill="#3CB5EA"/>
<path d="M15.8125 16C14.7125 16 13.7708 15.6083 12.9875 14.825C12.2042 14.0417 11.8125 13.1 11.8125 12C11.8125 10.9 12.2042 9.95833 12.9875 9.175C13.7708 8.39167 14.7125 8 15.8125 8C16.9125 8 17.8542 8.39167 18.6375 9.175C19.4208 9.95833 19.8125 10.9 19.8125 12C19.8125 13.1 19.4208 14.0417 18.6375 14.825C17.8542 15.6083 16.9125 16 15.8125 16ZM7.8125 24V21.2C7.8125 20.6333 7.95833 20.1125 8.25 19.6375C8.54167 19.1625 8.92917 18.8 9.4125 18.55C10.4458 18.0333 11.4958 17.6458 12.5625 17.3875C13.6292 17.1292 14.7125 17 15.8125 17C16.9125 17 17.9958 17.1292 19.0625 17.3875C20.1292 17.6458 21.1792 18.0333 22.2125 18.55C22.6958 18.8 23.0833 19.1625 23.375 19.6375C23.6667 20.1125 23.8125 20.6333 23.8125 21.2V24H7.8125ZM9.8125 22H21.8125V21.2C21.8125 21.0167 21.7667 20.85 21.675 20.7C21.5833 20.55 21.4625 20.4333 21.3125 20.35C20.4125 19.9 19.5042 19.5625 18.5875 19.3375C17.6708 19.1125 16.7458 19 15.8125 19C14.8792 19 13.9542 19.1125 13.0375 19.3375C12.1208 19.5625 11.2125 19.9 10.3125 20.35C10.1625 20.4333 10.0417 20.55 9.95 20.7C9.85833 20.85 9.8125 21.0167 9.8125 21.2V22ZM15.8125 14C16.3625 14 16.8333 13.8042 17.225 13.4125C17.6167 13.0208 17.8125 12.55 17.8125 12C17.8125 11.45 17.6167 10.9792 17.225 10.5875C16.8333 10.1958 16.3625 10 15.8125 10C15.2625 10 14.7917 10.1958 14.4 10.5875C14.0083 10.9792 13.8125 11.45 13.8125 12C13.8125 12.55 14.0083 13.0208 14.4 13.4125C14.7917 13.8042 15.2625 14 15.8125 14Z" fill="white"/>
</svg>
